# xmcd
#
# Track frame offsets:
#	150
#	14425
#	31150
#	42875
#	61525
#	79987
#	91775
#	108425
#	126945
#	144275
#	159867
#	173645
#
# Disc length: 2519 seconds
#
# Revision: 2
# Processed by: cddbd v1.5.1PL0 Copyright (c) Steve Scherf et al.
# Submitted via: audiograbber 1.83.01
#
DISCID=8509d50c
DTITLE=Robert Earl Keen Jr. - No Kinda Dancer
DYEAR=1984
DGENRE=Country
TTITLE0=No Kinda Dancer
TTITLE1=The Front Porch Song
TTITLE2=Between Hello and Goodbye
TTITLE3=Swervin' In My Lane
TTITLE4=Christabel
TTITLE5=Willie
TTITLE6=Young Lovers Waltz
TTITLE7=Death Of Tail Fitzsimmons
TTITLE8=Rolling By
TTITLE9=The Armadillo Jackal
TTITLE10=Lu Ann
TTITLE11=The Coldest Day Of Winter
EXTD=
EXTT0=
EXTT1=
EXTT2=
EXTT3=
EXTT4=
EXTT5=
EXTT6=
EXTT7=
EXTT8=
EXTT9=
EXTT10=
EXTT11=
PLAYORDER=
